<?xml version="1.0" encoding="UTF-8"?>
<svg width="80px" height="80px" viewBox="0 0 80 80" version="1.1" xmlns="http://www.w3.org/2000/svg" xmlns:xlink="http://www.w3.org/1999/xlink">
    <!-- Generator: Sketch 46.2 (44496) - http://www.bohemiancoding.com/sketch -->
    <title>Group 7</title>
    <desc>Created with Sketch.</desc>
    <defs></defs>
    <g id="Welcome" stroke="none" stroke-width="1" fill="none" fill-rule="evenodd">
        <g id="Group-7" transform="translate(-1.000000, -2.000000)" fill="#E03174">
            <path d="M67.4999083,65.553702 C67.6734617,64.9652482 67.7000194,62.9981887 66.426246,61.7244152 C65.1524725,60.4506417 61.962089,59.2248241 61.2192734,58.4820086 C60.4772761,57.7400112 51.018301,47.9078483 50.5139661,41.8233125 C51.1199392,35.7298193 60.6339715,25.8480441 61.3816266,25.100389 C62.1318801,24.3501355 65.3346355,23.0924694 66.6211635,21.8059414 C67.9076916,20.5194133 67.9007315,18.5525208 67.7330326,17.965767 C67.6304626,17.6068895 67.5386947,16.9737895 66.9375555,16.5866404 C66.534693,15.9433012 65.8869663,15.8284984 65.5145489,15.7220586 C64.9277951,15.5543597 62.9609026,15.5473996 61.6743745,16.8339277 C60.3878465,18.1204557 59.1301805,21.3232111 58.3799269,22.0734646 C57.6304998,22.8228917 47.7036036,32.3802997 41.6137408,32.9452834 C35.5259829,32.3999932 25.738511,22.9839464 24.9982681,22.2437035 C24.2554525,21.500888 23.0296349,18.3105045 21.7558614,17.036731 C20.4820879,15.7629575 18.5150284,15.7895152 17.9265746,15.9630686 C17.534272,16.0787709 16.8647154,16.233311 16.4329211,16.9417056 C15.7574532,17.3973269 15.606549,18.0646631 15.4914418,18.4549478 C15.3178884,19.0434016 15.2913307,21.0104611 16.5651042,22.2842346 C17.8388777,23.5580081 21.0292612,24.7838257 21.7720768,25.5266413 C22.5123196,26.2668842 31.9283664,36.0543561 32.4736566,42.142114 C31.9086729,48.2319768 22.3512649,58.158873 21.6018378,58.9083001 C20.8515843,59.6585537 17.6488289,60.9162197 16.3623009,62.2027478 C15.0757728,63.4892758 15.0827329,65.4561683 15.2504318,66.0429221 C15.3568717,66.4153395 15.4716744,67.0630662 16.1150136,67.4659287 C16.5021627,68.0670679 17.1352627,68.1588358 17.4941402,68.2614058 C18.080894,68.4291047 20.0477865,68.4360648 21.3343146,67.1495367 C22.6208426,65.8630087 23.8785087,62.6602534 24.6287622,61.9099998 C25.3764173,61.1623447 35.2581925,51.6483124 41.3516857,51.0423393 C47.4362215,51.5466742 57.2683844,61.0056493 58.0103818,61.7476466 C58.7531974,62.4904622 59.979015,65.6808457 61.2527884,66.9546192 C62.5265619,68.2283926 64.4936214,68.2018349 65.0820752,68.0282816 C65.4743778,67.9125793 66.1439345,67.7580392 66.5757287,67.0496446 C67.2422187,66.6029437 67.3859782,65.9399959 67.4999083,65.553702 Z" id="Combined-Shape"></path>
            <path d="M64.159742,19.4358712 C64.7739487,19.8004222 65.7027038,20.2153786 66.9460074,20.6807404 C68.4408513,21.9030495 69.6322561,22.3706589 70.5202218,22.0835687 C75.9364404,20.3324385 85.2233817,19.3255769 85.7257269,19.1917659 C86.2280722,19.057955 86.1331036,18.5915846 86.0933543,17.8637144 C86.053605,17.1358442 85.5357897,17.1992513 84.9618957,17.1992513 C84.3880017,17.1992513 71.6755299,16.5347883 70.2357457,16.5347883 C68.7959614,16.5347883 67.0280843,17.1262238 64.2091067,17.8637144 C64.1698859,17.8739752 64.131881,17.8844308 64.095092,17.8950813 C63.4808853,17.5305303 62.5521302,17.1155739 61.3088266,16.650212 C59.8139827,15.427903 58.6225779,14.9602935 57.7346122,15.2473838 C52.3183936,16.998514 43.0314523,18.0053756 42.5291071,18.1391865 C42.0267618,18.2729974 42.1217304,18.7393679 42.1614797,19.4672381 C42.201229,20.1951083 42.7190443,20.1317011 43.2929383,20.1317011 C43.8668323,20.1317011 56.5793041,20.7961642 58.0190883,20.7961642 C59.4588726,20.7961642 61.2267497,20.2047286 64.0457273,19.4672381 C64.0849481,19.4569773 64.122953,19.4465216 64.159742,19.4358712 Z" id="Combined-Shape" transform="translate(64.127417, 18.665476) rotate(45.000000) translate(-64.127417, -18.665476) "></path>
            <path d="M18.1331512,63.8570221 C17.5189445,63.4924711 16.5901894,63.0775146 15.3468859,62.6121528 C13.8520419,61.3898437 12.6606371,60.9222343 11.7726715,61.2093246 C6.35645286,62.9604548 -2.93048845,63.9673164 -3.43283371,64.1011273 C-3.93517896,64.2349382 -3.84021035,64.7013086 -3.80046105,65.4291788 C-3.76071174,66.157049 -3.24289649,66.0936419 -2.6690025,66.0936419 C-2.0951085,66.0936419 10.6173633,66.758105 12.0571476,66.758105 C13.4969318,66.758105 15.2648089,66.1666694 18.0837865,65.4291788 C18.1230073,65.418918 18.1610122,65.4084624 18.1978012,65.3978119 C18.812008,65.7623629 19.7407631,66.1773194 20.9840666,66.6426812 C22.4789105,67.8649903 23.6703153,68.3325997 24.558281,68.0455094 C29.9744996,66.2943792 39.2614409,65.2875176 39.7637861,65.1537067 C40.2661314,65.0198958 40.1711628,64.5535254 40.1314135,63.8256552 C40.0916642,63.097785 39.5738489,63.1611921 38.9999549,63.1611921 C38.4260609,63.1611921 25.7135891,62.496729 24.2738049,62.496729 C22.8340207,62.496729 21.0661435,63.0881646 18.2471659,63.8256552 C18.2079451,63.835916 18.1699402,63.8463716 18.1331512,63.8570221 L18.1331512,63.8570221 Z" id="Combined-Shape-Copy-3" transform="translate(18.165476, 64.627417) rotate(45.000000) translate(-18.165476, -64.627417) "></path>
            <path d="M18.9358712,19.404908 C19.3004222,20.0191147 19.7153786,20.9478698 20.1807404,22.1911734 C21.4030495,23.6860173 21.8706589,24.8774221 21.5835687,25.7653878 C19.8324385,31.1816064 18.8255769,40.4685477 18.6917659,40.9708929 C18.557955,41.4732382 18.0915846,41.3782696 17.3637144,41.3385203 C16.6358442,41.298771 16.6992513,40.7809557 16.6992513,40.2070617 C16.6992513,39.6331677 16.0347883,26.9206959 16.0347883,25.4809117 C16.0347883,24.0411274 16.6262238,22.2732503 17.3637144,19.4542727 C17.3739752,19.4150519 17.3844308,19.377047 17.3950813,19.340258 C17.0305303,18.7260513 16.6155739,17.7972962 16.150212,16.5539926 C14.927903,15.0591487 14.4602935,13.8677439 14.7473838,12.9797782 C16.498514,7.56355964 17.5053756,-1.72338167 17.6391865,-2.22572692 C17.7729974,-2.72807218 18.2393679,-2.63310357 18.9672381,-2.59335427 C19.6951083,-2.55360496 19.6317011,-2.03578971 19.6317011,-1.46189571 C19.6317011,-0.888001717 20.2961642,11.8244701 20.2961642,13.2642543 C20.2961642,14.7040386 19.7047286,16.4719157 18.9672381,19.2908933 C18.9569773,19.3301141 18.9465216,19.368119 18.9358712,19.404908 L18.9358712,19.404908 Z" id="Combined-Shape-Copy-4" transform="translate(18.165476, 19.372583) rotate(45.000000) translate(-18.165476, -19.372583) "></path>
            <path d="M64.8978119,65.3668488 C65.2623629,65.9810555 65.6773194,66.9098106 66.1426812,68.1531141 C67.3649903,69.6479581 67.8325997,70.8393629 67.5455094,71.7273285 C65.7943792,77.1435471 64.7875176,86.4304885 64.6537067,86.9328337 C64.5198958,87.435179 64.0535254,87.3402104 63.3256552,87.300461 C62.597785,87.2607117 62.6611921,86.7428965 62.6611921,86.1690025 C62.6611921,85.5951085 61.996729,72.8826367 61.996729,71.4428524 C61.996729,70.0030682 62.5881646,68.2351911 63.3256552,65.4162135 C63.335916,65.3769927 63.3463716,65.3389878 63.3570221,65.3021988 C62.9924711,64.687992 62.5775146,63.7592369 62.1121528,62.5159334 C60.8898437,61.0210895 60.4222343,59.8296847 60.7093246,58.941719 C62.4604548,53.5255004 63.4673164,44.2385591 63.6011273,43.7362139 C63.7349382,43.2338686 64.2013086,43.3288372 64.9291788,43.3685865 C65.657049,43.4083358 65.5936419,43.9261511 65.5936419,44.5000451 C65.5936419,45.0739391 66.258105,57.7864109 66.258105,59.2261951 C66.258105,60.6659793 65.6666694,62.4338565 64.9291788,65.2528341 C64.918918,65.2920549 64.9084624,65.3300598 64.8978119,65.3668488 L64.8978119,65.3668488 Z" id="Combined-Shape-Copy-5" transform="translate(64.127417, 65.334524) rotate(45.000000) translate(-64.127417, -65.334524) "></path>
        </g>
    </g>
</svg>