<?xml version="1.0" encoding="UTF-8"?>
<svg width="87px" height="43px" viewBox="0 0 87 43" version="1.1" xmlns="http://www.w3.org/2000/svg" xmlns:xlink="http://www.w3.org/1999/xlink">
    <!-- Generator: Sketch 46.2 (44496) - http://www.bohemiancoding.com/sketch -->
    <title>Group 2</title>
    <desc>Created with Sketch.</desc>
    <defs></defs>
    <g id="Welcome" stroke="none" stroke-width="1" fill="none" fill-rule="evenodd">
        <g id="Desktop" transform="translate(-468.000000, -156.000000)" fill="#212C40">
            <g id="Group-2" transform="translate(467.000000, 155.000000)">
                <path d="M67.9246472,8.91833311 L67.9246472,9.96034509 L65.918994,9.96034509 L65.918994,12.1261457 C58.8114217,12.0421429 50.4149954,9.22691567 44.8628156,8.98657946 C44.8628808,8.98114038 44.8629464,8.97570016 44.8630121,8.97025882 C44.743537,8.97025882 44.6225171,8.97169292 44.5,8.9745 C44.3774829,8.97169292 44.256463,8.97025882 44.1369879,8.97025882 C44.1370536,8.97570016 44.1371192,8.98114038 44.1371844,8.98657946 C38.5850046,9.22691567 30.1885783,12.0421429 23.081006,12.1261441 L23.081006,9.96034509 L21.0753528,9.96034509 L21.0753528,8.91833311 L36.1422255,8.39218632 L36.0731185,6.41322004 L21.0753528,6.93695356 L21.0753528,6 L18.066873,6 L18.066873,7.04201199 L3.00000037,7.56815877 L3.0691074,9.54712505 L18.066873,9.02339154 L18.066873,9.96034509 L16.0612199,9.96034509 L16.0612199,13.3408539 C15.3995543,13.8993725 15.5285392,14.5308026 15.7823118,14.9552846 C16.3345183,15.878953 27.6856109,12.8939129 31.5452438,17.9538599 C29.8964714,28.2126341 29.3890246,34.6737221 29.9607027,40.7127175 C30.1664516,42.8861723 32.5720574,41.9924818 32.456094,40.3511698 C32.3401306,38.7098577 31.1444582,27.7850895 36.3613567,19.3636092 C37.7366598,17.3095896 38.0305089,23.1695969 44.136697,23.6040104 C44.1367936,23.6124357 44.1368905,23.6208652 44.1369879,23.6292989 C44.2601168,23.6292989 44.3811056,23.6272082 44.5,23.6231151 C44.6188944,23.6272082 44.7398832,23.6292989 44.8630121,23.6292989 C44.8631095,23.6208652 44.8632064,23.6124357 44.863303,23.6040104 C50.9694911,23.1695969 51.2633402,17.3095896 52.6386433,19.3636092 C57.8555418,27.7850895 56.6598694,38.7098577 56.543906,40.3511698 C56.4279426,41.9924818 58.8335484,42.8861723 59.0392973,40.7127175 C59.6109754,34.6737221 59.1035286,28.2126341 57.4547562,17.9538599 C61.3143891,12.8939129 72.6654817,15.878953 73.2176882,14.9552846 C73.4714608,14.5308026 73.6004457,13.8993725 72.9387801,13.3408539 L72.9387801,9.96034509 L70.933127,9.96034509 L70.933127,9.02339154 L85.9308926,9.54712505 L85.9999996,7.56815877 L70.933127,7.04201199 L70.933127,6 L67.9246472,6 L67.9246472,6.93695356 L52.9268815,6.41322004 L52.8577745,8.39218632 L67.9246472,8.91833311 Z" id="Combined-Shape"></path>
                <path d="M67.9246472,8.91833311 L67.9246472,9.96034509 L65.918994,9.96034509 L65.918994,12.1261457 C58.8114217,12.0421429 50.4149954,9.22691567 44.8628156,8.98657946 C44.8628808,8.98114038 44.8629464,8.97570016 44.8630121,8.97025882 C44.743537,8.97025882 44.6225171,8.97169292 44.5,8.9745 C44.3774829,8.97169292 44.256463,8.97025882 44.1369879,8.97025882 C44.1370536,8.97570016 44.1371192,8.98114038 44.1371844,8.98657946 C38.5850046,9.22691567 30.1885783,12.0421429 23.081006,12.1261441 L23.081006,9.96034509 L21.0753528,9.96034509 L21.0753528,8.91833311 L36.1422255,8.39218632 L36.0731185,6.41322004 L21.0753528,6.93695356 L21.0753528,6 L18.066873,6 L18.066873,7.04201199 L3.00000037,7.56815877 L3.0691074,9.54712505 L18.066873,9.02339154 L18.066873,9.96034509 L16.0612199,9.96034509 L16.0612199,13.3408539 C15.3995543,13.8993725 15.5285392,14.5308026 15.7823118,14.9552846 C16.3345183,15.878953 27.6856109,12.8939129 31.5452438,17.9538599 C29.8964714,28.2126341 29.3890246,34.6737221 29.9607027,40.7127175 C30.1664516,42.8861723 32.5720574,41.9924818 32.456094,40.3511698 C32.3401306,38.7098577 31.1444582,27.7850895 36.3613567,19.3636092 C37.7366598,17.3095896 38.0305089,23.1695969 44.136697,23.6040104 C44.1367936,23.6124357 44.1368905,23.6208652 44.1369879,23.6292989 C44.2601168,23.6292989 44.3811056,23.6272082 44.5,23.6231151 C44.6188944,23.6272082 44.7398832,23.6292989 44.8630121,23.6292989 C44.8631095,23.6208652 44.8632064,23.6124357 44.863303,23.6040104 C50.9694911,23.1695969 51.2633402,17.3095896 52.6386433,19.3636092 C57.8555418,27.7850895 56.6598694,38.7098577 56.543906,40.3511698 C56.4279426,41.9924818 58.8335484,42.8861723 59.0392973,40.7127175 C59.6109754,34.6737221 59.1035286,28.2126341 57.4547562,17.9538599 C61.3143891,12.8939129 72.6654817,15.878953 73.2176882,14.9552846 C73.4714608,14.5308026 73.6004457,13.8993725 72.9387801,13.3408539 L72.9387801,9.96034509 L70.933127,9.96034509 L70.933127,9.02339154 L85.9308926,9.54712505 L85.9999996,7.56815877 L70.933127,7.04201199 L70.933127,6 L67.9246472,6 L67.9246472,6.93695356 L52.9268815,6.41322004 L52.8577745,8.39218632 L67.9246472,8.91833311 Z" id="Combined-Shape-Copy" opacity="0.16015625" transform="translate(44.500000, 24.000000) rotate(8.000000) translate(-44.500000, -24.000000) "></path>
                <path d="M67.9246472,8.91833311 L67.9246472,9.96034509 L65.918994,9.96034509 L65.918994,12.1261457 C58.8114217,12.0421429 50.4149954,9.22691567 44.8628156,8.98657946 C44.8628808,8.98114038 44.8629464,8.97570016 44.8630121,8.97025882 C44.743537,8.97025882 44.6225171,8.97169292 44.5,8.9745 C44.3774829,8.97169292 44.256463,8.97025882 44.1369879,8.97025882 C44.1370536,8.97570016 44.1371192,8.98114038 44.1371844,8.98657946 C38.5850046,9.22691567 30.1885783,12.0421429 23.081006,12.1261441 L23.081006,9.96034509 L21.0753528,9.96034509 L21.0753528,8.91833311 L36.1422255,8.39218632 L36.0731185,6.41322004 L21.0753528,6.93695356 L21.0753528,6 L18.066873,6 L18.066873,7.04201199 L3.00000037,7.56815877 L3.0691074,9.54712505 L18.066873,9.02339154 L18.066873,9.96034509 L16.0612199,9.96034509 L16.0612199,13.3408539 C15.3995543,13.8993725 15.5285392,14.5308026 15.7823118,14.9552846 C16.3345183,15.878953 27.6856109,12.8939129 31.5452438,17.9538599 C29.8964714,28.2126341 29.3890246,34.6737221 29.9607027,40.7127175 C30.1664516,42.8861723 32.5720574,41.9924818 32.456094,40.3511698 C32.3401306,38.7098577 31.1444582,27.7850895 36.3613567,19.3636092 C37.7366598,17.3095896 38.0305089,23.1695969 44.136697,23.6040104 C44.1367936,23.6124357 44.1368905,23.6208652 44.1369879,23.6292989 C44.2601168,23.6292989 44.3811056,23.6272082 44.5,23.6231151 C44.6188944,23.6272082 44.7398832,23.6292989 44.8630121,23.6292989 C44.8631095,23.6208652 44.8632064,23.6124357 44.863303,23.6040104 C50.9694911,23.1695969 51.2633402,17.3095896 52.6386433,19.3636092 C57.8555418,27.7850895 56.6598694,38.7098577 56.543906,40.3511698 C56.4279426,41.9924818 58.8335484,42.8861723 59.0392973,40.7127175 C59.6109754,34.6737221 59.1035286,28.2126341 57.4547562,17.9538599 C61.3143891,12.8939129 72.6654817,15.878953 73.2176882,14.9552846 C73.4714608,14.5308026 73.6004457,13.8993725 72.9387801,13.3408539 L72.9387801,9.96034509 L70.933127,9.96034509 L70.933127,9.02339154 L85.9308926,9.54712505 L85.9999996,7.56815877 L70.933127,7.04201199 L70.933127,6 L67.9246472,6 L67.9246472,6.93695356 L52.9268815,6.41322004 L52.8577745,8.39218632 L67.9246472,8.91833311 Z" id="Combined-Shape-Copy-2" opacity="0.16015625" transform="translate(44.500000, 24.000000) scale(-1, 1) rotate(8.000000) translate(-44.500000, -24.000000) "></path>
            </g>
        </g>
    </g>
</svg>