<?xml version="1.0" encoding="UTF-8"?>
<svg width="119px" height="18px" viewBox="0 0 119 18" version="1.1" xmlns="http://www.w3.org/2000/svg" xmlns:xlink="http://www.w3.org/1999/xlink">
    <!-- Generator: Sketch 46.2 (44496) - http://www.bohemiancoding.com/sketch -->
    <title>droneiro.com</title>
    <desc>Created with Sketch.</desc>
    <defs></defs>
    <g id="Welcome" stroke="none" stroke-width="1" fill="none" fill-rule="evenodd">
        <g id="Group-8" transform="translate(-13.000000, -64.000000)" fill="#FFFFFF">
            <path d="M25.2861328,81.3398438 L24.5449219,81.3398438 L23.3544922,79.6889648 C23.0624985,79.9510104 22.7536637,80.1962065 22.4279785,80.4245605 C22.1022933,80.6529146 21.7597674,80.8513175 21.4003906,81.0197754 C21.0410138,81.1882333 20.6722838,81.3211258 20.2941895,81.418457 C19.9160951,81.5157882 19.5323913,81.5644531 19.1430664,81.5644531 C18.2970335,81.5644531 17.5015499,81.4053564 16.7565918,81.0871582 C16.0116336,80.76896 15.360273,80.3272326 14.8024902,79.7619629 C14.2447075,79.1966931 13.8048519,78.5266152 13.4829102,77.751709 C13.1609684,76.9768028 13,76.1326543 13,75.2192383 C13,74.3133093 13.1609684,73.4710325 13.4829102,72.6923828 C13.8048519,71.9137331 14.2447075,71.2399117 14.8024902,70.6708984 C15.360273,70.1018852 16.0116336,69.6564144 16.7565918,69.3344727 C17.5015499,69.0125309 18.2970335,68.8515625 19.1430664,68.8515625 C19.412599,68.8515625 19.6914862,68.8740232 19.9797363,68.9189453 C20.2679865,68.9638674 20.5487454,69.0368647 20.8220215,69.1379395 C21.0952976,69.2390142 21.3517241,69.3719067 21.5913086,69.5366211 C21.8308931,69.7013355 22.0330395,69.9034819 22.1977539,70.1430664 L22.1977539,64.527832 L25.2861328,64.527832 L25.2861328,81.3398438 Z M22.1977539,75.2192383 C22.1977539,74.7999654 22.1172697,74.3938008 21.9562988,74.0007324 C21.795328,73.6076641 21.576336,73.259523 21.2993164,72.9562988 C21.0222968,72.6530747 20.6984882,72.4097503 20.3278809,72.2263184 C19.9572735,72.0428865 19.5623393,71.9511719 19.1430664,71.9511719 C18.7237935,71.9511719 18.3288593,72.0260409 17.958252,72.1757812 C17.5876446,72.3255216 17.2657077,72.5407701 16.9924316,72.8215332 C16.7191555,73.1022963 16.503907,73.4448222 16.3466797,73.8491211 C16.1894523,74.25342 16.1108398,74.7101212 16.1108398,75.2192383 C16.1108398,75.6609723 16.1894523,76.0802389 16.3466797,76.4770508 C16.503907,76.8738627 16.7191555,77.2220037 16.9924316,77.5214844 C17.2657077,77.820965 17.5876446,78.0568025 17.958252,78.2290039 C18.3288593,78.4012053 18.7237935,78.4873047 19.1430664,78.4873047 C19.5623393,78.4873047 19.9572735,78.3955901 20.3278809,78.2121582 C20.6984882,78.0287263 21.0222968,77.7854019 21.2993164,77.4821777 C21.576336,77.1789536 21.795328,76.8308125 21.9562988,76.4377441 C22.1172697,76.0446758 22.1977539,75.6385112 22.1977539,75.2192383 Z M30.6879883,81.3398438 L27.6220703,81.3398438 L27.6220703,69.3120117 L28.3632812,69.3120117 L29.3740234,70.7382812 C29.8681665,70.2890603 30.4296844,69.9427909 31.0585938,69.6994629 C31.6875031,69.4561349 32.3388638,69.3344727 33.0126953,69.3344727 L35.7192383,69.3344727 L35.7192383,72.3891602 L33.0126953,72.3891602 C32.6907536,72.3891602 32.387534,72.4490554 32.1030273,72.5688477 C31.8185207,72.6886399 31.5714529,72.8533518 31.3618164,73.0629883 C31.1521799,73.2726247 30.987468,73.5196926 30.8676758,73.8041992 C30.7478835,74.0887058 30.6879883,74.3919255 30.6879883,74.7138672 L30.6879883,81.3398438 Z M48.769043,75.2192383 C48.769043,76.1176803 48.6080745,76.9543418 48.2861328,77.729248 C47.9641911,78.5041543 47.5262072,79.1742322 46.972168,79.739502 C46.4181287,80.3047717 45.7686398,80.7502425 45.0236816,81.0759277 C44.2787235,81.401613 43.4794965,81.5644531 42.6259766,81.5644531 C41.7799437,81.5644531 40.9844601,81.401613 40.239502,81.0759277 C39.4945438,80.7502425 38.8431831,80.3047717 38.2854004,79.739502 C37.7276177,79.1742322 37.287762,78.5041543 36.9658203,77.729248 C36.6438786,76.9543418 36.4829102,76.1176803 36.4829102,75.2192383 C36.4829102,74.3058223 36.6438786,73.4598021 36.9658203,72.6811523 C37.287762,71.9025026 37.7276177,71.230553 38.2854004,70.6652832 C38.8431831,70.1000134 39.4945438,69.6564144 40.239502,69.3344727 C40.9844601,69.0125309 41.7799437,68.8515625 42.6259766,68.8515625 C43.4794965,68.8515625 44.2787235,69.0031723 45.0236816,69.3063965 C45.7686398,69.6096207 46.4181287,70.0401177 46.972168,70.5979004 C47.5262072,71.1556831 47.9641911,71.8257611 48.2861328,72.6081543 C48.6080745,73.3905475 48.769043,74.2609002 48.769043,75.2192383 Z M45.6806641,75.2192383 C45.6806641,74.7250952 45.6001798,74.2777527 45.439209,73.8771973 C45.2782381,73.4766419 45.0592462,73.1322443 44.7822266,72.8439941 C44.5052069,72.555744 44.1813983,72.3348803 43.810791,72.1813965 C43.4401837,72.0279126 43.0452495,71.9511719 42.6259766,71.9511719 C42.2067036,71.9511719 41.8117694,72.0279126 41.4411621,72.1813965 C41.0705548,72.3348803 40.7486179,72.555744 40.4753418,72.8439941 C40.2020657,73.1322443 39.9868172,73.4766419 39.8295898,73.8771973 C39.6723625,74.2777527 39.59375,74.7250952 39.59375,75.2192383 C39.59375,75.6834333 39.6723625,76.1139303 39.8295898,76.5107422 C39.9868172,76.9075541 40.2020657,77.2519517 40.4753418,77.5439453 C40.7486179,77.835939 41.0705548,78.0661613 41.4411621,78.2346191 C41.8117694,78.403077 42.2067036,78.4873047 42.6259766,78.4873047 C43.0452495,78.4873047 43.4401837,78.4086922 43.810791,78.2514648 C44.1813983,78.0942375 44.5052069,77.8733738 44.7822266,77.5888672 C45.0592462,77.3043606 45.2782381,76.959963 45.439209,76.5556641 C45.6001798,76.1513652 45.6806641,75.7058944 45.6806641,75.2192383 Z M53.5307617,81.3398438 L50.4648438,81.3398438 L50.4648438,69.3120117 L51.2060547,69.3120117 L52.2167969,70.4799805 C52.71094,70.0307595 53.2705861,69.6844901 53.895752,69.4411621 C54.5209178,69.1978341 55.1741502,69.0761719 55.8554688,69.0761719 C56.5891964,69.0761719 57.281735,69.2165513 57.9331055,69.4973145 C58.5844759,69.7780776 59.1534806,70.1636531 59.6401367,70.6540527 C60.1267928,71.1444523 60.5104966,71.7172005 60.7912598,72.3723145 C61.0720229,73.0274284 61.2124023,73.7255822 61.2124023,74.4667969 L61.2124023,81.3398438 L58.1464844,81.3398438 L58.1464844,74.4667969 C58.1464844,74.1523422 58.0865891,73.8547377 57.9667969,73.5739746 C57.8470046,73.2932115 57.6822927,73.0480154 57.4726562,72.8383789 C57.2630198,72.6287424 57.0196954,72.4640305 56.7426758,72.3442383 C56.4656562,72.224446 56.1699234,72.1645508 55.8554688,72.1645508 C55.533527,72.1645508 55.2303074,72.224446 54.9458008,72.3442383 C54.6612942,72.4640305 54.4142263,72.6287424 54.2045898,72.8383789 C53.9949534,73.0480154 53.8302415,73.2932115 53.7104492,73.5739746 C53.590657,73.8547377 53.5307617,74.1523422 53.5307617,74.4667969 L53.5307617,81.3398438 Z M68.175293,78.3974609 C68.2950852,78.434896 68.4148757,78.4592285 68.534668,78.470459 C68.6544602,78.4816895 68.7742507,78.4873047 68.894043,78.4873047 C69.1935236,78.4873047 69.4817694,78.4461267 69.7587891,78.3637695 C70.0358087,78.2814123 70.2959786,78.1634936 70.5393066,78.0100098 C70.7826347,77.8565259 70.9997549,77.6693533 71.1906738,77.4484863 C71.3815928,77.2276193 71.536946,76.9824232 71.6567383,76.7128906 L73.902832,78.9702148 C73.6183254,79.3745137 73.2907733,79.7376286 72.920166,80.0595703 C72.5495587,80.381512 72.1490093,80.654784 71.7185059,80.8793945 C71.2880024,81.104005 70.8350447,81.2743321 70.3596191,81.3903809 C69.8841936,81.5064296 69.3956731,81.5644531 68.894043,81.5644531 C68.0480101,81.5644531 67.2525265,81.4072281 66.5075684,81.0927734 C65.7626102,80.7783187 65.1112495,80.3403348 64.5534668,79.7788086 C63.9956841,79.2172823 63.5558284,78.5490761 63.2338867,77.7741699 C62.911945,76.9992637 62.7509766,76.1476283 62.7509766,75.2192383 C62.7509766,74.2683872 62.911945,73.3999063 63.2338867,72.6137695 C63.5558284,71.8276328 63.9956841,71.1575549 64.5534668,70.6035156 C65.1112495,70.0494764 65.7626102,69.6189794 66.5075684,69.3120117 C67.2525265,69.005044 68.0480101,68.8515625 68.894043,68.8515625 C69.3956731,68.8515625 69.8860653,68.9114577 70.3652344,69.03125 C70.8444034,69.1510423 71.2992329,69.3232411 71.7297363,69.5478516 C72.1602398,69.7724621 72.5626609,70.0476058 72.9370117,70.373291 C73.3113625,70.6989762 73.6407863,71.0639628 73.925293,71.4682617 L68.175293,78.3974609 Z M69.7475586,72.074707 C69.6053053,72.0222979 69.4649258,71.9886068 69.326416,71.9736328 C69.1879062,71.9586588 69.0437833,71.9511719 68.894043,71.9511719 C68.47477,71.9511719 68.0798358,72.0279126 67.7092285,72.1813965 C67.3386212,72.3348803 67.0166843,72.5538723 66.7434082,72.8383789 C66.4701321,73.1228855 66.2548836,73.4654114 66.0976562,73.8659668 C65.9404289,74.2665222 65.8618164,74.7176082 65.8618164,75.2192383 C65.8618164,75.3315435 65.8674316,75.4588209 65.8786621,75.6010742 C65.8898926,75.7433275 65.9086099,75.8874504 65.9348145,76.0334473 C65.961019,76.1794441 65.9928384,76.3198235 66.0302734,76.4545898 C66.0677085,76.5893561 66.1163734,76.7091466 66.1762695,76.8139648 L69.7475586,72.074707 Z M79.0800781,66.0439453 C79.0800781,66.3284519 79.0257981,66.594237 78.9172363,66.8413086 C78.8086746,67.0883801 78.6608082,67.3036286 78.4736328,67.4870605 C78.2864574,67.6704925 78.0674654,67.8164871 77.8166504,67.9250488 C77.5658353,68.0336106 77.2981785,68.0878906 77.0136719,68.0878906 C76.7291652,68.0878906 76.4615084,68.0336106 76.2106934,67.9250488 C75.9598783,67.8164871 75.7427581,67.6704925 75.5593262,67.4870605 C75.3758943,67.3036286 75.2298996,67.0883801 75.1213379,66.8413086 C75.0127761,66.594237 74.9584961,66.3284519 74.9584961,66.0439453 C74.9584961,65.7669257 75.0127761,65.5030123 75.1213379,65.2521973 C75.2298996,65.0013822 75.3758943,64.784262 75.5593262,64.6008301 C75.7427581,64.4173982 75.9598783,64.2714035 76.2106934,64.1628418 C76.4615084,64.0542801 76.7291652,64 77.0136719,64 C77.2981785,64 77.5658353,64.0542801 77.8166504,64.1628418 C78.0674654,64.2714035 78.2864574,64.4173982 78.4736328,64.6008301 C78.6608082,64.784262 78.8086746,65.0013822 78.9172363,65.2521973 C79.0257981,65.5030123 79.0800781,65.7669257 79.0800781,66.0439453 Z M78.5522461,81.3398438 L75.4638672,81.3398438 L75.4638672,69.3120117 L78.5522461,69.3120117 L78.5522461,81.3398438 Z M83.9541016,81.3398438 L80.8881836,81.3398438 L80.8881836,69.3120117 L81.6293945,69.3120117 L82.6401367,70.7382812 C83.1342798,70.2890603 83.6957976,69.9427909 84.324707,69.6994629 C84.9536164,69.4561349 85.6049771,69.3344727 86.2788086,69.3344727 L88.9853516,69.3344727 L88.9853516,72.3891602 L86.2788086,72.3891602 C85.9568669,72.3891602 85.6536473,72.4490554 85.3691406,72.5688477 C85.084634,72.6886399 84.8375662,72.8533518 84.6279297,73.0629883 C84.4182932,73.2726247 84.2535813,73.5196926 84.1337891,73.8041992 C84.0139968,74.0887058 83.9541016,74.3919255 83.9541016,74.7138672 L83.9541016,81.3398438 Z M102.035156,75.2192383 C102.035156,76.1176803 101.874188,76.9543418 101.552246,77.729248 C101.230304,78.5041543 100.79232,79.1742322 100.238281,79.739502 C99.684242,80.3047717 99.0347531,80.7502425 98.2897949,81.0759277 C97.5448368,81.401613 96.7456097,81.5644531 95.8920898,81.5644531 C95.046057,81.5644531 94.2505734,81.401613 93.5056152,81.0759277 C92.7606571,80.7502425 92.1092964,80.3047717 91.5515137,79.739502 C90.9937309,79.1742322 90.5538753,78.5041543 90.2319336,77.729248 C89.9099919,76.9543418 89.7490234,76.1176803 89.7490234,75.2192383 C89.7490234,74.3058223 89.9099919,73.4598021 90.2319336,72.6811523 C90.5538753,71.9025026 90.9937309,71.230553 91.5515137,70.6652832 C92.1092964,70.1000134 92.7606571,69.6564144 93.5056152,69.3344727 C94.2505734,69.0125309 95.046057,68.8515625 95.8920898,68.8515625 C96.7456097,68.8515625 97.5448368,69.0031723 98.2897949,69.3063965 C99.0347531,69.6096207 99.684242,70.0401177 100.238281,70.5979004 C100.79232,71.1556831 101.230304,71.8257611 101.552246,72.6081543 C101.874188,73.3905475 102.035156,74.2609002 102.035156,75.2192383 Z M98.9467773,75.2192383 C98.9467773,74.7250952 98.8662931,74.2777527 98.7053223,73.8771973 C98.5443514,73.4766419 98.3253595,73.1322443 98.0483398,72.8439941 C97.7713202,72.555744 97.4475116,72.3348803 97.0769043,72.1813965 C96.706297,72.0279126 96.3113628,71.9511719 95.8920898,71.9511719 C95.4728169,71.9511719 95.0778827,72.0279126 94.7072754,72.1813965 C94.3366681,72.3348803 94.0147312,72.555744 93.7414551,72.8439941 C93.468179,73.1322443 93.2529305,73.4766419 93.0957031,73.8771973 C92.9384758,74.2777527 92.8598633,74.7250952 92.8598633,75.2192383 C92.8598633,75.6834333 92.9384758,76.1139303 93.0957031,76.5107422 C93.2529305,76.9075541 93.468179,77.2519517 93.7414551,77.5439453 C94.0147312,77.835939 94.3366681,78.0661613 94.7072754,78.2346191 C95.0778827,78.403077 95.4728169,78.4873047 95.8920898,78.4873047 C96.3113628,78.4873047 96.706297,78.4086922 97.0769043,78.2514648 C97.4475116,78.0942375 97.7713202,77.8733738 98.0483398,77.5888672 C98.3253595,77.3043606 98.5443514,76.959963 98.7053223,76.5556641 C98.8662931,76.1513652 98.9467773,75.7058944 98.9467773,75.2192383 Z M105.570801,80.6425781 C105.570801,80.8066414 105.541179,80.9604485 105.481934,81.1040039 C105.422689,81.2475593 105.340658,81.3717443 105.23584,81.4765625 C105.131022,81.5813807 105.007976,81.6645505 104.866699,81.7260742 C104.725422,81.787598 104.572755,81.8183594 104.408691,81.8183594 C104.249185,81.8183594 104.097657,81.787598 103.954102,81.7260742 C103.810546,81.6645505 103.685222,81.5813807 103.578125,81.4765625 C103.471028,81.3717443 103.386719,81.2475593 103.325195,81.1040039 C103.263672,80.9604485 103.23291,80.8066414 103.23291,80.6425781 C103.23291,80.4830721 103.263672,80.332683 103.325195,80.1914062 C103.386719,80.0501295 103.471028,79.9270839 103.578125,79.8222656 C103.685222,79.7174474 103.810546,79.6342777 103.954102,79.5727539 C104.097657,79.5112302 104.249185,79.4804688 104.408691,79.4804688 C104.572755,79.4804688 104.725422,79.5112302 104.866699,79.5727539 C105.007976,79.6342777 105.131022,79.7174474 105.23584,79.8222656 C105.340658,79.9270839 105.422689,80.0501295 105.481934,80.1914062 C105.541179,80.332683 105.570801,80.4830721 105.570801,80.6425781 Z M113.356934,75.4746094 L111.989746,76.8486328 C111.921386,76.6572256 111.827963,76.4851896 111.709473,76.3325195 C111.590982,76.1798495 111.457683,76.0511073 111.30957,75.9462891 C111.161458,75.8414708 111.000815,75.761719 110.827637,75.7070312 C110.654459,75.6523435 110.476726,75.625 110.294434,75.625 C110.039224,75.625 109.798829,75.6774083 109.573242,75.7822266 C109.347655,75.8870448 109.151694,76.034016 108.985352,76.2231445 C108.81901,76.4122731 108.687989,76.6367175 108.592285,76.8964844 C108.496582,77.1562513 108.44873,77.4433578 108.44873,77.7578125 C108.44873,78.0130221 108.496582,78.2522775 108.592285,78.4755859 C108.687989,78.6988943 108.81901,78.8948559 108.985352,79.0634766 C109.151694,79.2320972 109.347655,79.3642573 109.573242,79.4599609 C109.798829,79.5556645 110.039224,79.6035156 110.294434,79.6035156 C110.476726,79.6035156 110.65218,79.5784508 110.820801,79.5283203 C110.989421,79.4781899 111.147786,79.4064132 111.295898,79.3129883 C111.444011,79.2195633 111.576171,79.1056322 111.692383,78.9711914 C111.808594,78.8367506 111.903157,78.6875008 111.976074,78.5234375 L113.343262,79.8974609 C113.170084,80.1435559 112.970704,80.3645824 112.745117,80.5605469 C112.51953,80.7565114 112.275717,80.9228509 112.013672,81.0595703 C111.751626,81.1962897 111.475913,81.2999671 111.186523,81.3706055 C110.897134,81.4412438 110.599774,81.4765625 110.294434,81.4765625 C109.779457,81.4765625 109.29525,81.379721 108.841797,81.1860352 C108.388344,80.9923493 107.991864,80.7268897 107.652344,80.3896484 C107.312824,80.0524072 107.045086,79.6582054 106.849121,79.2070312 C106.653157,78.7558571 106.555176,78.272789 106.555176,77.7578125 C106.555176,77.1972628 106.653157,76.6731795 106.849121,76.1855469 C107.045086,75.6979142 107.312824,75.272951 107.652344,74.9106445 C107.991864,74.548338 108.388344,74.2623708 108.841797,74.0527344 C109.29525,73.8430979 109.779457,73.7382812 110.294434,73.7382812 C110.599774,73.7382812 110.899413,73.7770178 111.193359,73.8544922 C111.487306,73.9319665 111.767577,74.0447584 112.03418,74.1928711 C112.300783,74.3409838 112.546874,74.5221343 112.772461,74.7363281 C112.998048,74.9505219 113.19287,75.1966132 113.356934,75.4746094 Z M121.341309,77.6142578 C121.341309,78.1611355 121.243328,78.6704078 121.047363,79.1420898 C120.851399,79.6137719 120.5848,80.0216454 120.247559,80.3657227 C119.910317,80.7097999 119.514976,80.980956 119.061523,81.1791992 C118.608071,81.3774424 118.121585,81.4765625 117.602051,81.4765625 C117.087074,81.4765625 116.602867,81.3774424 116.149414,81.1791992 C115.695961,80.980956 115.299481,80.7097999 114.959961,80.3657227 C114.620441,80.0216454 114.352703,79.6137719 114.156738,79.1420898 C113.960774,78.6704078 113.862793,78.1611355 113.862793,77.6142578 C113.862793,77.0582654 113.960774,76.5432966 114.156738,76.0693359 C114.352703,75.5953752 114.620441,75.1863624 114.959961,74.8422852 C115.299481,74.4982079 115.695961,74.2281911 116.149414,74.0322266 C116.602867,73.836262 117.087074,73.7382812 117.602051,73.7382812 C118.121585,73.7382812 118.608071,73.8305655 119.061523,74.0151367 C119.514976,74.199708 119.910317,74.4617496 120.247559,74.8012695 C120.5848,75.1407895 120.851399,75.548663 121.047363,76.0249023 C121.243328,76.5011417 121.341309,77.0309216 121.341309,77.6142578 Z M119.461426,77.6142578 C119.461426,77.3134751 119.412435,77.0411796 119.314453,76.7973633 C119.216471,76.553547 119.083171,76.3439136 118.914551,76.168457 C118.74593,75.9930004 118.548829,75.8585617 118.323242,75.7651367 C118.097655,75.6717118 117.85726,75.625 117.602051,75.625 C117.346841,75.625 117.106446,75.6717118 116.880859,75.7651367 C116.655272,75.8585617 116.459311,75.9930004 116.292969,76.168457 C116.126627,76.3439136 115.995606,76.553547 115.899902,76.7973633 C115.804199,77.0411796 115.756348,77.3134751 115.756348,77.6142578 C115.756348,77.8968113 115.804199,78.158853 115.899902,78.4003906 C115.995606,78.6419283 116.126627,78.8515616 116.292969,79.0292969 C116.459311,79.2070321 116.655272,79.3471675 116.880859,79.449707 C117.106446,79.5522466 117.346841,79.6035156 117.602051,79.6035156 C117.85726,79.6035156 118.097655,79.5556645 118.323242,79.4599609 C118.548829,79.3642573 118.74593,79.2298186 118.914551,79.0566406 C119.083171,78.8834627 119.216471,78.6738294 119.314453,78.4277344 C119.412435,78.1816394 119.461426,77.9104833 119.461426,77.6142578 Z M131.684082,81.3398438 L129.824707,81.3398438 L129.824707,76.6914062 C129.824707,76.5638014 129.800781,76.4430344 129.75293,76.3291016 C129.705078,76.2151687 129.637859,76.1149093 129.55127,76.0283203 C129.464681,75.9417313 129.364421,75.874512 129.250488,75.8266602 C129.136555,75.7788084 129.015788,75.7548828 128.888184,75.7548828 C128.760579,75.7548828 128.640951,75.7788084 128.529297,75.8266602 C128.417643,75.874512 128.319662,75.9417313 128.235352,76.0283203 C128.151041,76.1149093 128.084961,76.2151687 128.037109,76.3291016 C127.989258,76.4430344 127.965332,76.5638014 127.965332,76.6914062 L127.965332,81.3398438 L126.099121,81.3398438 L126.099121,76.6914062 C126.099121,76.5638014 126.075196,76.4430344 126.027344,76.3291016 C125.979492,76.2151687 125.912273,76.1149093 125.825684,76.0283203 C125.739095,75.9417313 125.638835,75.874512 125.524902,75.8266602 C125.410969,75.7788084 125.290202,75.7548828 125.162598,75.7548828 C125.034993,75.7548828 124.915365,75.7788084 124.803711,75.8266602 C124.692057,75.874512 124.594076,75.9417313 124.509766,76.0283203 C124.425455,76.1149093 124.359375,76.2151687 124.311523,76.3291016 C124.263672,76.4430344 124.239746,76.5638014 124.239746,76.6914062 L124.239746,81.3398438 L122.373535,81.3398438 L122.373535,74.0185547 L122.824707,74.0185547 L123.330566,74.5791016 C123.590333,74.3603505 123.876301,74.1905931 124.188477,74.0698242 C124.500653,73.9490554 124.825356,73.8886719 125.162598,73.8886719 C125.504396,73.8886719 125.838215,73.9524733 126.164062,74.0800781 C126.48991,74.2076829 126.775878,74.4287094 127.021973,74.7431641 C127.135906,74.5882154 127.265787,74.4560552 127.411621,74.3466797 C127.557455,74.2373041 127.711262,74.1484378 127.873047,74.0800781 C128.034832,74.0117184 128.20231,73.962728 128.375488,73.9331055 C128.548666,73.9034829 128.719563,73.8886719 128.888184,73.8886719 C129.275555,73.8886719 129.638996,73.9615878 129.978516,74.1074219 C130.318036,74.2532559 130.614257,74.4526355 130.867188,74.7055664 C131.120118,74.9584974 131.319498,75.2558577 131.465332,75.5976562 C131.611166,75.9394548 131.684082,76.3040345 131.684082,76.6914062 L131.684082,81.3398438 Z" id="droneiro.com"></path>
        </g>
    </g>
</svg>