<?xml version="1.0" encoding="UTF-8"?>
<svg width="77px" height="76px" viewBox="0 0 77 76" version="1.1" xmlns="http://www.w3.org/2000/svg" xmlns:xlink="http://www.w3.org/1999/xlink">
    <!-- Generator: Sketch 46.2 (44496) - http://www.bohemiancoding.com/sketch -->
    <title>Combined Shape</title>
    <desc>Created with Sketch.</desc>
    <defs>
        <path d="M45.9738636,29.0100593 L58.5284647,16.4554583 C58.4352319,16.1068286 58.3855259,15.7404103 58.3855259,15.3623825 C58.3855259,14.6510823 58.5615076,13.9808847 58.8723067,13.3929541 C58.1807469,12.8454506 57.4351738,12.1813482 56.6875219,11.4336962 C54.2154927,8.96166708 52.6568451,6.5123636 53.2061849,5.96302379 C53.7555247,5.41368398 56.2048282,6.97233165 58.6768573,9.4443608 C59.4245092,10.1920127 60.0886116,10.9375859 60.6361152,11.6291456 C61.2240458,11.3183465 61.8942434,11.1423648 62.6055436,11.1423648 C64.936195,11.1423648 66.8255613,13.0317311 66.8255613,15.3623825 C66.8255613,16.0736828 66.6495797,16.7438803 66.3387805,17.3318109 C67.0303403,17.8793145 67.7759134,18.5434169 68.5235653,19.2910688 C70.9955945,21.763098 72.5542422,24.2124015 72.0049023,24.7617413 C71.4555625,25.3110811 69.0062591,23.7524334 66.5342299,21.2804043 C65.786578,20.5327523 65.1224756,19.7871792 64.574972,19.0956195 C63.9870414,19.4064186 63.3168439,19.5824003 62.6055436,19.5824003 C62.2275158,19.5824003 61.8610975,19.5326942 61.5124679,19.4394614 L48.7855509,32.1663783 C50.0086694,34.1144052 50.7159795,36.419135 50.7159795,38.8890659 C50.7159795,41.2591594 50.0646943,43.4771371 48.9313295,45.3737933 L60.8762843,57.3187482 C61.224914,57.2255154 61.5913323,57.1758094 61.9693601,57.1758094 C62.6806603,57.1758094 63.3508579,57.351791 63.9387885,57.6625902 C64.4862921,56.9710304 65.1503945,56.2254573 65.8980464,55.4778054 C68.3700755,53.0057762 70.819379,51.4471285 71.3687188,51.9964684 C71.9180586,52.5458082 70.359411,54.9951116 67.8873818,57.4671408 C67.1397299,58.2147927 66.3941567,58.8788951 65.702597,59.4263987 C66.0133961,60.0143293 66.1893778,60.6845268 66.1893778,61.3958271 C66.1893778,63.7264785 64.3000115,65.6158448 61.9693601,65.6158448 C61.2580598,65.6158448 60.5878623,65.4398632 59.9999317,65.129064 C59.4524281,65.8206238 58.7883257,66.5661969 58.0406738,67.3138488 C55.5686446,69.785878 53.1193411,71.3445256 52.5700013,70.7951858 C52.0206615,70.245846 53.5793092,67.7965425 56.0513383,65.3245134 C56.7989903,64.5768615 57.5445634,63.9127591 58.2361232,63.3652555 C57.925324,62.7773249 57.7493424,62.1071273 57.7493424,61.3958271 C57.7493424,61.0177993 57.7990484,60.651381 57.8922812,60.3027514 L46.1846748,48.595145 C43.9854379,50.4389366 41.1503306,51.5491191 38.0559263,51.5491191 C35.1255082,51.5491191 32.4276328,50.5534858 30.2821211,48.8820403 L18.4631038,60.7010576 C18.5563366,61.0496872 18.6060426,61.4161055 18.6060426,61.7941333 C18.6060426,62.5054336 18.430061,63.1756311 18.1192618,63.7635617 C18.8108216,64.3110653 19.5563947,64.9751677 20.3040466,65.7228196 C22.7760758,68.1948488 24.3347235,70.6441522 23.7853837,71.193492 C23.2360438,71.7428319 20.7867404,70.1841842 18.3147112,67.712155 C17.5670593,66.9645031 16.9029569,66.21893 16.3554533,65.5273702 C15.7675227,65.8381694 15.0973252,66.014151 14.3860249,66.014151 C12.0553735,66.014151 10.1660072,64.1247847 10.1660072,61.7941333 C10.1660072,61.0828331 10.3419889,60.4126355 10.652788,59.8247049 C9.96122825,59.2772013 9.2156551,58.6130989 8.46800318,57.865447 C5.99597403,55.3934179 4.43732636,52.9441144 4.98666617,52.3947746 C5.53600599,51.8454348 7.98530947,53.4040824 10.4573386,55.8761116 C11.2049905,56.6237635 11.8690929,57.3693366 12.4165965,58.0608964 C13.0045271,57.7500972 13.6747247,57.5741156 14.3860249,57.5741156 C14.7640527,57.5741156 15.130471,57.6238216 15.4791007,57.7170544 L27.4268514,45.7693037 C26.1420302,43.7884941 25.3958731,41.4259171 25.3958731,38.8890659 C25.3958731,35.8936563 26.436159,33.1412185 28.1751549,30.9733282 L15.7884334,18.5866067 C15.4398037,18.6798395 15.0733854,18.7295455 14.6953576,18.7295455 C13.9840574,18.7295455 13.3138598,18.5535639 12.7259292,18.2427647 C12.1784257,18.9343245 11.5143233,19.6798976 10.7666713,20.4275495 C8.29464218,22.8995787 5.8453387,24.4582264 5.29599889,23.9088865 C4.74665908,23.3595467 6.30530675,20.9102433 8.7773359,18.4382141 C9.52498782,17.6905622 10.270561,17.0264598 10.9621207,16.4789562 C10.6513216,15.8910256 10.4753399,15.2208281 10.4753399,14.5095278 C10.4753399,12.1788764 12.3647062,10.2895101 14.6953576,10.2895101 C15.4066579,10.2895101 16.0768554,10.4654917 16.664786,10.7762909 C17.2122896,10.0847311 17.876392,9.33915799 18.6240439,8.59150607 C21.0960731,6.11947692 23.5453766,4.56082925 24.0947164,5.11016906 C24.6440562,5.65950887 23.0854085,8.10881235 20.6133794,10.5808415 C19.8657274,11.3284934 19.1201543,11.9925958 18.4285946,12.5400994 C18.7393937,13.12803 18.9153754,13.7982275 18.9153754,14.5095278 C18.9153754,14.8875556 18.8656693,15.2539739 18.7724365,15.6026035 L31.3308036,28.1609706 C33.2793448,26.9369124 35.5849661,26.2290127 38.0559263,26.2290127 C41.0523491,26.2290127 43.8056357,27.2700024 45.9738636,29.0100593 Z" id="path-1"></path>
        <filter x="-11.2%" y="-11.3%" width="122.3%" height="122.6%" filterUnits="objectBoundingBox" id="filter-2">
            <feMorphology radius="0.5" operator="dilate" in="SourceAlpha" result="shadowSpreadOuter1"></feMorphology>
            <feOffset dx="0" dy="0" in="shadowSpreadOuter1" result="shadowOffsetOuter1"></feOffset>
            <feGaussianBlur stdDeviation="2" in="shadowOffsetOuter1" result="shadowBlurOuter1"></feGaussianBlur>
            <feColorMatrix values="0 0 0 0 0   0 0 0 0 0   0 0 0 0 0  0 0 0 0.403787364 0" type="matrix" in="shadowBlurOuter1"></feColorMatrix>
        </filter>
    </defs>
    <g id="Welcome" stroke="none" stroke-width="1" fill="none" fill-rule="evenodd">
        <g id="Combined-Shape">
            <use fill="black" fill-opacity="1" filter="url(#filter-2)" xlink:href="#path-1"></use>
            <use fill="#E03174" fill-rule="evenodd" xlink:href="#path-1"></use>
        </g>
    </g>
</svg>